<svg width="24" height="24" viewBox="0 0 24 24" fill="none" xmlns="http://www.w3.org/2000/svg">
<path d="M16 1C16.2652 1 16.5196 1.10536 16.7071 1.29289C16.8946 1.48043 17 1.73478 17 2V3H22V9H19.981L22.727 16.544C22.9237 17.0517 23.0147 17.5943 22.9943 18.1384C22.974 18.6825 22.8428 19.2167 22.6088 19.7084C22.3747 20.2 22.0428 20.6387 21.6332 20.9975C21.2237 21.3563 20.7452 21.6278 20.2271 21.7952C19.709 21.9626 19.1622 22.0225 18.6201 21.9712C18.078 21.9199 17.5521 21.7584 17.0747 21.4967C16.5972 21.2351 16.1782 20.8786 15.8432 20.4493C15.5083 20.02 15.2646 19.5268 15.127 19H10.874C10.6467 19.8777 10.1282 20.6521 9.40329 21.1966C8.6784 21.7411 7.79011 22.0233 6.88389 21.9971C5.97767 21.9708 5.10721 21.6376 4.41506 21.0521C3.72291 20.4665 3.25008 19.6633 3.074 18.774C2.74993 18.6047 2.47846 18.3498 2.28911 18.0371C2.09976 17.7243 1.99977 17.3656 2 17V7C2 6.73478 2.10536 6.48043 2.29289 6.29289C2.48043 6.10536 2.73478 6 3 6H10C10.2652 6 10.5196 6.10536 10.7071 6.29289C10.8946 6.48043 11 6.73478 11 7V12C11 12.2652 11.1054 12.5196 11.2929 12.7071C11.4804 12.8946 11.7348 13 12 13H14C14.2652 13 14.5196 12.8946 14.7071 12.7071C14.8946 12.5196 15 12.2652 15 12V3H12V1H16ZM7 16C6.46957 16 5.96086 16.2107 5.58579 16.5858C5.21071 16.9609 5 17.4696 5 18C5 18.5304 5.21071 19.0391 5.58579 19.4142C5.96086 19.7893 6.46957 20 7 20C7.53043 20 8.03914 19.7893 8.41421 19.4142C8.78929 19.0391 9 18.5304 9 18C9 17.4696 8.78929 16.9609 8.41421 16.5858C8.03914 16.2107 7.53043 16 7 16ZM19 15.999C18.5747 15.9991 18.1605 16.1348 17.8176 16.3864C17.4746 16.638 17.2208 16.9923 17.093 17.398C16.9652 17.8037 16.9701 18.2395 17.1069 18.6422C17.2436 19.0449 17.5052 19.3936 17.8537 19.6375C18.2021 19.8814 18.6192 20.0078 19.0444 19.9985C19.4696 19.9892 19.8808 19.8446 20.2182 19.5856C20.5556 19.3267 20.8017 18.9669 20.9207 18.5586C21.0397 18.1503 21.0255 17.7147 20.88 17.315L20.864 17.271C20.7173 16.8962 20.4609 16.5743 20.1283 16.3476C19.7958 16.1208 19.4025 15.9997 19 16V15.999ZM17.853 9H17V12C17 12.7956 16.6839 13.5587 16.1213 14.1213C15.5587 14.6839 14.7956 15 14 15H12C11.2044 15 10.4413 14.6839 9.87868 14.1213C9.31607 13.5587 9 12.7956 9 12H4V15.354C4.48084 14.8095 5.10081 14.4062 5.79345 14.1872C6.48608 13.9682 7.22524 13.9419 7.93169 14.1111C8.63813 14.2802 9.28522 14.6385 9.80355 15.1474C10.3219 15.6564 10.6919 16.2968 10.874 17H15.126C15.378 16.0252 15.9881 15.1812 16.8348 14.6362C17.6814 14.0913 18.7024 13.8856 19.694 14.06L17.853 9ZM9 8H4V10H9V8ZM20 5H17V7H20V5Z" fill="black"/>
</svg>
